<svg width="400" height="400" viewBox="0 0 400 400" fill="none" xmlns="http://www.w3.org/2000/svg">
<g clip-path="url(#clip0_36_169)">
<path fill-rule="evenodd" clip-rule="evenodd" d="M29.5625 0C13.2406 0 0 12.8375 0 28.6531V371.356C0 387.173 13.2422 400 29.5625 400H370.438C386.766 400 400 387.172 400 371.352V28.6531C400 12.8375 386.766 0 370.438 0H29.5625ZM122.107 155.518V334.994H62.5127V155.518H122.107ZM126.035 100.013C126.035 117.236 113.1 131.017 92.3223 131.017L92.3176 131.016H91.9318C71.9307 131.016 59 117.234 59 100.011C59 82.397 72.3211 69 92.7174 69C113.1 69 125.646 82.397 126.035 100.013ZM214.683 334.994H155.093L155.092 335C155.092 335 155.874 172.361 155.096 155.524H214.688V180.928C222.609 168.701 236.787 151.31 268.397 151.31C307.604 151.31 337 176.963 337 232.088V334.994H277.412V238.989C277.412 214.86 268.783 198.403 247.224 198.403C230.758 198.403 220.952 209.501 216.646 220.223C215.072 224.049 214.683 229.42 214.683 234.777V334.994Z" fill="#006699"/>
</g>
<defs>
<clipPath id="clip0_36_169">
<rect width="400" height="400" fill="white"/>
</clipPath>
</defs>
</svg>
