<svg width="400" height="400" viewBox="0 0 400 400" fill="none" xmlns="http://www.w3.org/2000/svg">
<path fill-rule="evenodd" clip-rule="evenodd" d="M200 6C89.5 6 0 95.0109 0 204.907C0 292.923 57.25 367.265 136.75 393.62C146.75 395.36 150.5 389.393 150.5 384.172C150.5 379.448 150.25 363.784 150.25 347.126C100 356.325 87 334.942 83 323.754C80.75 318.035 71 300.382 62.5 295.658C55.5 291.929 45.5 282.729 62.25 282.481C78 282.232 89.25 296.901 93 302.869C111 332.953 139.75 324.5 151.25 319.279C153 306.35 158.25 297.647 164 292.675C119.5 287.702 73 270.546 73 194.464C73 172.833 80.75 154.932 93.5 141.008C91.5 136.035 84.5 115.647 95.5 88.2978C95.5 88.2978 112.25 83.0765 150.5 108.686C166.5 104.21 183.5 101.973 200.5 101.973C217.5 101.973 234.5 104.21 250.5 108.686C288.75 82.8278 305.5 88.2978 305.5 88.2978C316.5 115.647 309.5 136.035 307.5 141.008C320.25 154.932 328 172.585 328 194.464C328 270.795 281.25 287.702 236.75 292.675C244 298.891 250.25 310.825 250.25 329.473C250.25 356.076 250 377.459 250 384.172C250 389.393 253.75 395.609 263.75 393.62C342.75 367.265 400 292.675 400 204.907C400 95.0109 310.5 6 200 6Z" fill="black"/>
</svg>
